# xmcd CD database file
#
# Track frame offsets:
#	150
#	17213
#	36703
#	54270
#	77194
#	92305
#	113097
#	141460
#	158242
#
# Disc length: 2320 seconds
#
# Revision: 0
# Processed by: cddbd v1.5.1PL2 Copyright (c) Steve Scherf et al.
# Submitted via: CDex 1.51
#
DISCID=72090e09
DTITLE=Poles Apart - Penguins and Polarbears
DYEAR=2006
DGENRE=Jazz
TTITLE0=Do it again
TTITLE1=Take a walk with me
TTITLE2=Under the Moon
TTITLE3=Emotional Skill
TTITLE4=How long
TTITLE5=Consume
TTITLE6=Wo gehst du hin
TTITLE7=Nikitiki
TTITLE8=Gotcha
EXTD=YEAR: 2006
EXTT0=
EXTT1=
EXTT2=
EXTT3=
EXTT4=
EXTT5=
EXTT6=
EXTT7=
EXTT8=
PLAYORDER=
